<svg width="146" height="22" viewBox="0 0 146 22" fill="none" xmlns="http://www.w3.org/2000/svg">
<path d="M12.6804 21.3878L15.8432 11.0001L17.3006 5.01548H17.6417L19.0991 11.0001L22.1999 21.3878H29.1147L34.0451 0.612305H28.9597L26.448 12.3954L25.7348 16.9537H25.3937L24.4325 12.3954L20.9906 0.612305H14.0757L10.6028 12.3954L9.64155 16.9537H9.30046L8.58727 12.3954L6.0756 0.612305H0.866211L5.76552 21.3878H12.6804Z" fill="#1C1B20"/>
<path d="M53.2321 21.3878V17.2017H40.3017V13.0156H52.767V8.8605H40.3017V4.79842H53.2321V0.612305H35.6505V21.3878H53.2321Z" fill="#1C1B20"/>
<path fill-rule="evenodd" clip-rule="evenodd" d="M65.2654 21.4055C71.9437 21.4055 76.1682 17.5227 76.1682 10.9997C76.1682 4.47673 71.9437 0.593994 65.2654 0.593994H55.2324V21.4055H65.2654ZM65.2654 4.78735C69.4898 4.78735 71.1982 5.99877 71.1982 10.9997C71.1982 16.0007 69.4898 17.2121 65.2654 17.2121H59.8917V4.78735H65.2654ZM95.8015 21.4055V17.2121H82.8486V13.0188H95.3355V8.85646H82.8486V4.78735H95.8015V0.593994H78.1894V21.4055H95.8015ZM114.742 0.593994H120.333L111.698 21.4055H105.051L96.4154 0.593994H102.038L108.281 16.6841H108.592L114.742 0.593994ZM137.511 0.694977L134.935 3.91497L138.638 8.58396L145.078 0.694977H137.511ZM138.317 21.3039L135.419 17.4399L138.8 12.4489L145.884 21.3039H138.317Z" fill="#1C1B20"/>
<path d="M134.455 14.6673L129.694 21.4061H122.09L129.911 11.236V10.8342L122.09 0.695068H129.694L134.702 7.40296L137.04 10.516L134.455 14.6673Z" fill="#5F65DC"/>
</svg>
